' *******************************************************************************
' Copyright (c) 2026 Contributors to the Eclipse Foundation
'
' See the NOTICE file(s) distributed with this work for additional
' information regarding copyright ownership.
'
' This program and the accompanying materials are made available under the
' terms of the Apache License Version 2.0 which is available at
' https://www.apache.org/licenses/LICENSE-2.0
'
' SPDX-License-Identifier: Apache-2.0
' *******************************************************************************

@startuml

namespace score::memory::shared {

abstract class ManagedMemoryResource
class MemoryResourceProxy
class "OffsetPtr<const MemoryResourceProxy>" as ProxyOffsetPtr
class "OffsetPtr<T>" as ValueOffsetPtr

class "PolymorphicOffsetPtrAllocator<T>" as PolymorphicOffsetPtrAllocator {
  +PolymorphicOffsetPtrAllocator()
  +PolymorphicOffsetPtrAllocator(resource)
  +PolymorphicOffsetPtrAllocator(rhs)
  +allocate(size): pointer
  +deallocate(p, size): void
  +getMemoryResourceProxy(): OffsetPtr<const MemoryResourceProxy>
  --
  -proxy_ : OffsetPtr<const MemoryResourceProxy>
}

PolymorphicOffsetPtrAllocator *-- ProxyOffsetPtr
PolymorphicOffsetPtrAllocator ..> ManagedMemoryResource
PolymorphicOffsetPtrAllocator ..> ValueOffsetPtr
ProxyOffsetPtr ..> MemoryResourceProxy

}

@enduml
