@startuml generic_proxy_model
title "Generic Proxy Extension"

class "score::mw::com::impl::HandleType" {
  -indentifier_: InstanceIdentifier
  +operator==(const HandleType& other): bool
  +operator<(const HandleType& other): bool
  +GetInstanceId(): InstanceIdentifier&
  +GetServiceInstanceDeployment(): ServiceInstanceDeployment&
}

class "ProxyBindingFactory" {
  +{static} Create(HandleType handle): std::unique_ptr<ProxyBinding>
  +{static} CreateGeneric(HandleType handle, ServiceElementMap<GenericProxyEvent>& events): std::unique_ptr<ProxyBinding>
  +{static} FindService(InstanceIdentifier) : std::optional<HandleType>
}

abstract class "score::mw::com::impl::ProxyBase" {
  -proxy_binding_ : std::unique_ptr<ProxyBinding>
  -handle_ : HandleType
  +{static} FindService(InstanceSpecifier): ServiceHandleContainer<HandleType>
  +{static} Preconstruct(const HandleType&): Result<ConstructionToken>
  +GetHandle() : const HandleType&
  ..
  <u>Notes:</u>
  ProxyBase is not copyable but moveable
}

abstract class "ProxyBinding" {
  +{abstract} IsEventProvided() = 0: bool
}

class "mw::com::impl::GenericProxy" #yellow {
  using HandleType = ProxyBase::HandleType
  using EventMapView = ServiceElementMapView<GenericProxyEvent>
  ..
  +{static} Create(HandleType instance_handle) : Result<GenericProxy>
  -GenericProxy(std::unique_ptr<ProxyBinding> proxy_binding, HandleType instance_handle)
  +GetEvents() : EventMapView

  -events_ : std::unique_ptr<ServiceElementMapViewFactory<GenericProxyEvent>::map_type> events_
}

class "lola::Proxy" {
  +{static} Create(const LolaServiceInstanceDeployment& shm_binding, const LolaServiceTypeDeployment& service_deployment, QualityType quality_type) : Result<Proxy>
  +{static} Create(const LolaServiceInstanceDeployment& shm_binding, const LolaServiceTypeDeployment& service_deployment, QualityType quality_type, ServiceElementMap<GenericProxyEvent>&) : Result<Proxy>
  +Proxy(Proxy&&)
  +GetServiceHandles(instance_identifier : InstanceIdentifier) : score::Result<std::vector<HandleType>>
  +GetEventControlLocal(element_fq_id : const ElementFqId) : ConsumerEventControlLocalView&
  +GetRawDataStorage(element_fq_id : const ElementFqId) : void*
  +GetEventMetaInfo(element_fq_id : const ElementFqId) :  const EventMetaInfo&
  +GetQualityType() : QualityType
  +GetSourcePid() : pid_t
  +{abstract} IsEventProvided(): bool
  --
  -service_data_control_local_ : ProxyServiceDataControlLocalView
}

class "mw::com::impl::ProxyEvent<SampleType>" {
  + template <typename F> GetNewSamples(F&& receiver, size_t max_num_samples): Result<size_t>
}

abstract class "ProxyEventBindingBase" {
  +{abstract} Subscribe(size_t maxSampleCount) = 0: void
  +{abstract} GetSubscriptionState() = 0: SubscriptionState
  +{abstract} Unsubscribe() = 0: void
  +{abstract} SetReceiveHandler(EventReceiveHandler handler) = 0: void
  +{abstract} UnsetReceiveHandler() = 0: void
  +{abstract} GetNumNewSamplesAvailable() = 0: Result<std::size_t>
}

abstract class "ProxyEventBinding<SampleType>" {
  using Callback = score::cpp::callback<void(SamplePtr<SampleType>) noexcept>
  ..
  +{abstract} GetNewSamples(Callback&&, TrackerGuardFactory&) = 0: Result<size_t>
}

class "SampleReferenceTracker" {
  +SampleReferenceTracker()
  +SampleReferenceTracker(size_t max_num_samples)
  +GetNumAvailableSamples(): size_t
  +Allocate(size_t count) : TrackerGuardFactory
  +Reset(size_t new_max_count) : void
  +IsUsed() : bool
}

class "lola::ProxyEvent<SampleType>" {
  +ProxyEvent(lola::Proxy& parent)
  +GetNewSamples(ProxyEventBinding::Callback&&, TrackerGuardFactory&): Result<size_t>
  -common_dispatch_ : lola::ProxyEventCommon
  ..
  <u>Notes:</u>
  Dispatches all calls to functions in ProxyEventBindingBase interface to ProxyEventCommon
}

class "ProxyEventBindingFactory" {
  +{static} template <typename SampleType> Create(ProxyBase& parent, std::string_view event_name): std::unique_ptr<ProxyEventBinding<SampleType>>
  +{static} <b>CreateGeneric(ProxyBase& parent, std::string_view event_name): std::unique_ptr<GenericProxyEventBinding></b>
}

class "lola::SubscriptionStateMachine" {
  ..
  <u>Notes:</u>
  State machine that manages subscriptions to a ProxyEvent.
  Details about the state machine can be found in
  proxy_event_state_machine.puml.
}

class "ProxyBaseView" {
  +ProxyBaseView(proxy_base : ProxyBase&)
  +GetImpl() : ProxyBinding&
}

class "lola::SlotCollector" {
  using SlotIndexVector = std::vector<SlotIndexType>;
  ..
  -event_data_control_local_: ConsumerEventDataControlLocalView<>&
  +SlotCollector(event_data_control_local: ConsumerEventDataControlLocalView<>&, const std::size_t max_slots)
  +GetNumNewSamplesAvailable(): size_t
  +GetNewSamplesSlotIndices(size_t max_count): pair<SlotIndexVector::const_reverse_iterator, SlotIndexVector::const_reverse_iterator>
  <u>Notes:</u>
  SlotCollector is not copyable.\nUses ConsumerEventDataControlLocalView to avoid OffsetPtr overhead\nduring GetNewSamples().
}

class "DummyProxy" <<generated>>  {
  using HandleType = ProxyBase::HandleType
  ..
  +DummyProxy(ConstructionToken&&)
  +DummyProxy(HandleType)
  +DummyEvent : events::DummyEvent
}

abstract class "mw::com::impl::ProxyEventBase" #yellow {
  +ProxyEventBase(ProxyEventBindingBase&)
  +Subscribe(size_t max_sample_count): void
  +GetSubscriptionState() : SubscriptionState
  +Unsubscribe(): void
  +GetFreeSampleCount(): Result<size_t>
  +GetNumNewSamplesAvailable(): Result<std::size_t>
  +SetReceiveHandler(EventReceiveHandler handler) : void
  +UnsetReceiveHandler() : void
}

class "mw::com::impl::GenericProxyEvent" #yellow {
  +GetDataTypeSizeInfo() const : memory::DataTypeSizeInfo
  +HasSerializedFormat() const : bool
  +GetNewSamples(F&& receiver, size_t max_num_samples): Result<size_t>
}

abstract class "GenericProxyEventBinding" #yellow {
  using Callback = score::cpp::callback<void(SamplePtr<void>) noexcept>
  ..
  +GetDataTypeSizeInfo() const : memory::DataTypeSizeInfo
  +HasSerializedFormat() const : bool
  +{abstract} GetNewSamples(Callback&&, size_t max_num_samples) = 0: Result<size_t>
}

class "lola::ProxyEventCommon" #yellow {
  -element_fq_id_: ElementFqId
  -parent_: lola::Proxy&
  -subscription_event_state_machine_: std::shared_ptr<SubscriptionStateMachine>
  -test_slot_collector_: std::optional<SlotCollector>
  -event_data_control_local_: ConsumerEventDataControlLocalView<>
  +ProxyEventCommon(lola::Proxy& parent, ElementFqId)
  +Subscribe(size_t max_sample_count): void
  +Unsubscribe(): void
  +GetSubscriptionState() : SubscriptionState
  +SetReceiveHandler(EventReceiveHandler handler) : void
  +UnsetReceiveHandler(EventReceiveHandler handler) : void
  +GetElementFQId() : ElementFqId
  +GetNumNewSamplesAvailable(): Result<std::size_t>
  +GetEventControl(): ConsumerEventControlLocalView&
  +GetNewSamplesSlotIndices(size_t max_count): pair<SlotIndexVector::const_reverse_iterator, SlotIndexVector::const_reverse_iterator>
  ..
  <u>Notes:</u>
  lola::ProxyEventCommon is not moveable or copyable.
  event_control_local_ is obtained from Proxy::GetEventControlLocal() at construction.
  SlotCollector is instantiated by the SubscriptionStateMachine when it enters the
  Subscribed state. It is cleared if it subsequently leaves the Subscribed state.
}

class "lola::GenericProxyEvent" #yellow {
  +GenericProxyEvent(lola::Proxy& parent)
  +GetNewSamples(GenericProxyEventBinding::Callback&&, TrackerGuardFactory&): Result<size_t>
  -common_dispatch_ : lola::ProxyEventCommon
}

class "ServiceElementMapViewFactory<ElementType>" {
  using map_type = typename ServiceElementMapView<ElementType>::map_type
  ..
  +Create(map_type&) : ServiceElementMapView<ElementType>
}

class "ServiceElementMapView<ElementType>" {
  using key = std::string_view;
  using value_type = std::pair<const key, Value>
  using iterator = typename std::map<key, Value>::iterator
  using const_iterator = typename std::map<key, Value>::const_iterator
  using size_type = typename std::map<key, Value>::size_type
  using map_type = std::map<key, Value>
  ..
  +cbegin() : const_iterator
  +cend() : const_iterator
  +find() : const_iterator
  +size() : std::size_t
  +empty() : bool
}

' Relationships
"score::mw::com::impl::HandleType" <.. "score::mw::com::impl::ProxyBase" : uses

"score::mw::com::impl::ProxyBase" *--> "ProxyBinding"
"score::mw::com::impl::ProxyBase" <|-- "DummyProxy"
"score::mw::com::impl::ProxyBase" <|-- "mw::com::impl::GenericProxy"
"ProxyBindingFactory" ..> "ProxyBinding" : creates
"ProxyBinding" <|-- "lola::Proxy"
"lola::ProxyEventCommon" o-- "1" "lola::Proxy"
"ProxyBindingFactory" <.. "mw::com::impl::GenericProxy" : uses
"ProxyBindingFactory" <.. "DummyProxy" : uses
"DummyProxy" *--> "mw::com::impl::ProxyEvent<SampleType>" : "0..n"
"mw::com::impl::GenericProxy" *--> "mw::com::impl::GenericProxyEvent" : "0..n"
"mw::com::impl::GenericProxy" ..> "ServiceElementMapViewFactory<ElementType>" : uses
"ServiceElementMapViewFactory<ElementType>" ..> "ServiceElementMapView<ElementType>" : creates
"ServiceElementMapView<ElementType>" o-- "mw::com::impl::GenericProxyEvent" : "0..n"
"mw::com::impl::ProxyEventBase" *-- "SampleReferenceTracker"
"mw::com::impl::ProxyEventBase" <|-- "mw::com::impl::ProxyEvent<SampleType>"
"mw::com::impl::ProxyEventBase" <|-- "mw::com::impl::GenericProxyEvent"
"SampleReferenceTracker" <.. "lola::ProxyEvent<SampleType>" : uses
"SampleReferenceTracker" <.. "lola::GenericProxyEvent" : uses
"GenericProxyEventBinding" --* "mw::com::impl::GenericProxyEvent" : "1"
"ProxyEventBindingFactory" *-- "ProxyBaseView"
"ProxyEventBindingFactory" ..> "ProxyEventBinding<SampleType>" : creates
"mw::com::impl::ProxyEvent<SampleType>" ..> "ProxyEventBindingFactory" : uses
"ProxyEventBinding<SampleType>" --* "mw::com::impl::ProxyEvent<SampleType>" : "1"

"GenericProxyEventBinding" <|-- "lola::GenericProxyEvent"

"ProxyEventBindingBase" <|-- "ProxyEventBinding<SampleType>"
"ProxyEventBindingBase" <|-- "GenericProxyEventBinding"
"ProxyEventBinding<SampleType>" <|-- "lola::ProxyEvent<SampleType>"

"lola::ProxyEvent<SampleType>" *-- "lola::ProxyEventCommon" : common_dispatch_
"lola::GenericProxyEvent" *-- "lola::ProxyEventCommon" : common_dispatch_

"lola::ProxyEventCommon" o-- "ConsumerEventControlLocalView" : event_control_local_
"lola::SubscriptionStateMachine" --* "lola::ProxyEventCommon"
"lola::ProxyEventCommon" *-- "lola::SlotCollector"
"lola::SlotCollector" o-- "ConsumerEventDataControlLocalView"
"lola::Proxy" *-- "ProxyServiceDataControlLocalView" : service_data_control_local_
"ProxyServiceDataControlLocalView" *-- "1..n" "ConsumerEventControlLocalView"
"ConsumerEventControlLocalView" *-- "ConsumerEventDataControlLocalView"

@enduml
