' *******************************************************************************
' Copyright (c) 2026 Contributors to the Eclipse Foundation
'
' See the NOTICE file(s) distributed with this work for additional
' information regarding copyright ownership.
'
' This program and the accompanying materials are made available under the
' terms of the Apache License Version 2.0 which is available at
' https://www.apache.org/licenses/LICENSE-2.0
'
' SPDX-License-Identifier: Apache-2.0
' *******************************************************************************
@startuml lola_skeleton_interfaces
title "Lola Skeleton Interfaces"

package "Lola Binding" as lola_binding  <<component>> {
  package "SkeletonAndServiceElements" as lola_skeleton_and_service_elements <<component>> {
    component "Skeleton" as lola_skeleton <<unit>> 
    component "SkeletonEvent" as lola_skeleton_event <<unit>> 
    component "SkeletonMethod" as lola_skeleton_method <<unit>> 
  }
} 

interface "LolaSkeletonForLolaSkeletonEventInterface" as lola_skeleton_for_lola_skeleton_event_interface <<interface>>
lola_skeleton_event --( lola_skeleton_for_lola_skeleton_event_interface
lola_skeleton -- lola_skeleton_for_lola_skeleton_event_interface

interface "LolaSkeletonForLolaSkeletonMethodInterface" as lola_skeleton_for_lola_skeleton_method_interface <<interface>>
lola_skeleton --( lola_skeleton_for_lola_skeleton_method_interface
lola_skeleton_method -- lola_skeleton_for_lola_skeleton_method_interface

@enduml
